<svg height="511pt" viewBox="0 0 511.9982 511" width="511pt" xmlns="http://www.w3.org/2000/svg"><path d="m247.464844 34.527344c-18.847656 0-34.132813 15.28125-34.132813 34.132812v196.265625c.246094 10.074219-1.125 20.121094-4.0625 29.757813-.914062 2.847656-3.242187 5.019531-6.152343 5.734375-2.734376.695312-5.632813-.066407-7.679688-2.015625-6.664062-6.355469-12.585938-13.449219-17.644531-21.144532-15.199219-22.800781-53.871094-63.53125-76.800781-63.53125-13.101563-.273437-25.15625 7.132813-30.832032 18.945313-3.957031 10.554687-.863281 22.460937 7.730469 29.753906 15.574219 15.574219 50.636719 73.601563 67.832031 116.609375 11.324219 28.289063 36.164063 56.046875 55.015625 74.351563 8.089844 7.996093 12.628907 18.910156 12.59375 30.285156v3.121094c0 14.140625 11.460938 25.601562 25.601563 25.601562h136.53125c14.140625 0 25.601562-11.460937 25.601562-25.601562v-26.214844c-.082031-2.167969.742188-4.273437 2.277344-5.808594 31.496094-28.800781 31.855469-76.878906 31.855469-78.910156v-135.089844c.316406-18.269531-13.453125-33.71875-31.640625-35.488281-6.839844-.441406-13.652344 1.175781-19.558594 4.648438v-13.269532c0-18.851562-15.28125-34.132812-34.132812-34.132812-6.152344.03125-12.183594 1.742187-17.433594 4.949218-1.089844-11.511718-8.003906-21.660156-18.3125-26.894531-10.3125-5.234375-22.585938-4.824219-32.519532 1.089844v-73.011719c0-18.851562-15.285156-34.132812-34.136718-34.132812zm51.203125 119.46875c9.425781 0 17.066406 7.640625 17.066406 17.066406v76.796875c0 4.714844 3.820313 8.535156 8.53125 8.535156 4.714844 0 8.535156-3.820312 8.535156-8.535156v-51.199219c0-9.425781 7.640625-17.066406 17.066407-17.066406 9.425781 0 17.066406 7.640625 17.066406 17.066406v59.734375c0 4.710938 3.820312 8.53125 8.53125 8.53125 4.714844 0 8.535156-3.820312 8.535156-8.53125v-17.066406c-.011719-4.753906 1.957031-9.296875 5.4375-12.539063 3.476562-3.238281 8.152344-4.878906 12.890625-4.527343 9.230469 1.210937 16.054687 9.203125 15.804687 18.507812v135.089844c0 .417969-.433593 42.667969-26.308593 66.324219-5.066407 4.765625-7.90625 11.4375-7.824219 18.394531v26.214844c0 4.714843-3.820312 8.535156-8.535156 8.535156h-136.53125c-4.714844 0-8.535156-3.820313-8.535156-8.535156v-3.121094c.011718-15.996094-6.410157-31.324219-17.824219-42.53125-14.457031-14.035156-40.3125-41.601563-51.046875-68.453125-16.75-41.855469-52.90625-103.59375-71.621094-122.328125-4.0625-4.058594-5.417969-7.816406-4.035156-11.160156 3.089844-5.367188 8.882812-8.59375 15.070312-8.40625 11.835938 0 45.226563 29.800781 62.625 55.9375 5.785156 8.773437 12.550782 16.863281 20.164063 24.105469 6.28125 5.9375 15.15625 8.25 23.535156 6.136718 8.539063-2.132812 15.394531-8.480468 18.175781-16.828125 3.535156-11.394531 5.210938-23.289062 4.957032-35.21875v-196.265625c0-9.425781 7.640624-17.066406 17.066406-17.066406 9.425781 0 17.070312 7.640625 17.070312 17.066406v179.199219c0 4.714844 3.820313 8.535156 8.53125 8.535156 4.714844 0 8.535156-3.820312 8.535156-8.535156v-76.796875c0-9.425781 7.640626-17.066406 17.066407-17.066406zm0 0"/><path d="m392.535156 367.328125c4.710938 0 8.53125-3.820313 8.53125-8.535156v-51.199219c0-4.710938-3.820312-8.53125-8.53125-8.53125-4.714844 0-8.535156 3.820312-8.535156 8.53125v51.199219c0 4.714843 3.820312 8.535156 8.535156 8.535156zm0 0"/><path d="m384 418.527344c2.261719 0 4.433594-.898438 6.03125-2.5 6.496094-6.007813 10.441406-14.273438 11.035156-23.101563-.007812-4.605469-3.714844-8.351562-8.320312-8.410156-4.605469.050781-8.40625 3.621094-8.746094 8.214844-.640625 4.332031-2.773438 8.304687-6.03125 11.230469-2.441406 2.441406-3.171875 6.109374-1.851562 9.296874 1.320312 3.191407 4.433593 5.269532 7.882812 5.269532zm0 0"/><path d="m264.535156 461.195312h-8.535156c-4.710938 0-8.535156 3.820313-8.535156 8.53125 0 4.714844 3.824218 8.535157 8.535156 8.535157h8.535156c4.710938 0 8.53125-3.820313 8.53125-8.535157 0-4.710937-3.820312-8.53125-8.53125-8.53125zm0 0"/><path d="m298.667969 478.261719h59.730469c4.714843 0 8.535156-3.820313 8.535156-8.535157 0-4.710937-3.820313-8.53125-8.535156-8.53125h-59.730469c-4.714844 0-8.535157 3.820313-8.535157 8.53125 0 4.714844 3.820313 8.535157 8.535157 8.535157zm0 0"/><path d="m8.535156 43.0625h17.066406c4.710938 0 8.53125-3.820312 8.53125-8.535156 0-4.710938-3.820312-8.53125-8.53125-8.53125h-17.066406c-4.714844 0-8.535156 3.820312-8.535156 8.53125 0 4.714844 3.820312 8.535156 8.535156 8.535156zm0 0"/><path d="m51.199219 34.527344c0 4.714844 3.820312 8.535156 8.535156 8.535156h81.800781l-11.035156 11.03125c-2.21875 2.144531-3.109375 5.316406-2.328125 8.300781.78125 2.980469 3.113281 5.3125 6.097656 6.09375 2.980469.78125 6.15625-.109375 8.296875-2.328125l25.601563-25.597656c3.328125-3.335938 3.328125-8.734375 0-12.066406l-25.601563-25.601563c-3.347656-3.234375-8.671875-3.1875-11.960937.105469-3.292969 3.289062-3.339844 8.613281-.105469 11.960938l11.035156 11.035156h-81.800781c-4.714844 0-8.535156 3.820312-8.535156 8.53125zm0 0"/><path d="m482.867188 25.996094h-81.800782c-4.710937 0-8.53125 3.820312-8.53125 8.53125 0 4.714844 3.820313 8.535156 8.53125 8.535156h81.800782l-11.035157 11.03125c-2.214843 2.144531-3.105469 5.316406-2.324219 8.300781.78125 2.980469 3.109376 5.3125 6.09375 6.09375 2.984376.78125 6.15625-.109375 8.296876-2.328125l25.601562-25.597656c3.332031-3.335938 3.332031-8.734375 0-12.066406l-25.601562-25.601563c-3.347657-3.234375-8.667969-3.1875-11.960938.105469-3.292969 3.289062-3.335938 8.613281-.105469 11.960938zm0 0"/><path d="m366.933594 43.0625c4.710937 0 8.53125-3.820312 8.53125-8.535156 0-4.710938-3.820313-8.53125-8.53125-8.53125h-17.066406c-4.714844 0-8.535157 3.820312-8.535157 8.53125 0 4.714844 3.820313 8.535156 8.535157 8.535156zm0 0"/></svg>