<?xml version="1.0" encoding="iso-8859-1"?>
<!-- Generator: Adobe Illustrator 19.0.0, SVG Export Plug-In . SVG Version: 6.00 Build 0)  -->
<svg version="1.1" id="Layer_1" xmlns="http://www.w3.org/2000/svg" xmlns:xlink="http://www.w3.org/1999/xlink" x="0px" y="0px"
	 viewBox="0 0 463.604 463.604" style="enable-background:new 0 0 463.604 463.604;" xml:space="preserve">
<g>
	<g>
		<path d="M199.725,431.604h-16c-4.418,0-8,3.582-8,8s3.582,8,8,8h16c4.418,0,8-3.582,8-8S204.143,431.604,199.725,431.604z"/>
	</g>
</g>
<g>
	<g>
		<path d="M151.725,31.604h-64.72l8.72-4.64l13.76-13.76c2.874-3.356,2.483-8.406-0.873-11.28c-2.995-2.565-7.412-2.565-10.407,0
			l-32,32c-3.102,3.12-3.102,8.16,0,11.28l32,32c1.457,1.488,3.438,2.349,5.52,2.4c4.418,0.026,8.021-3.535,8.046-7.953
			c0.013-2.149-0.84-4.213-2.366-5.727l-13.68-13.76l-8.72-4.56h64.72c4.418,0,8-3.582,8-8S156.143,31.604,151.725,31.604z"/>
	</g>
</g>
<g>
	<g>
		<path d="M343.725,31.604h-40c-4.418,0-8,3.582-8,8s3.582,8,8,8h40c4.418,0,8-3.582,8-8S348.143,31.604,343.725,31.604z"/>
	</g>
</g>
<g>
	<g>
		<path d="M391.725,31.604h-16c-4.418,0-8,3.582-8,8s3.582,8,8,8h16c4.418,0,8-3.582,8-8S396.143,31.604,391.725,31.604z"/>
	</g>
</g>
<g>
	<g>
		<path d="M367.725,392.244c0,0,0,0,0-0.64v-22.16c-0.024-6.013,0.702-12.006,2.16-17.84l6.88-27.44
			c4.721-18.84,6.129-38.358,4.16-57.68l-8.64-65.52c-3.315-23.737-23.633-41.391-47.6-41.36h-2.16
			c-3.79-18.568-20.089-31.928-39.04-32h-6.8l-3.92-81.52c-0.812-17.077-14.904-30.499-32-30.48h-1.04c-17.673,0-32,14.327-32,32
			v4.48c-4.846-2.876-10.365-4.421-16-4.48h-1.6c-16.863-0.038-30.862,13.016-32,29.84l-7.04,102.8
			c-6.471-5.567-14.269-9.369-22.64-11.04c-8.108-1.626-16.119,3.195-18.48,11.12l-17.44,58.08
			c-3.385,11.316-3.105,23.413,0.8,34.56l9.84,28.24c7.25,20.953,21.05,39.017,39.36,51.52l10.24,6.88
			c4.379,2.998,6.986,7.973,6.96,13.28v19.36c-10.56,8-16,20.8-16,39.04v24c0,4.418,3.582,8,8,8s8-3.582,8-8v-23.68
			c0-23.04,8.96-32,32-32h144c24,0,32,8,32,32h-136c-4.418,0-8,3.582-8,8s3.582,8,8,8h136v8c0,4.418,3.582,8,8,8s8-3.582,8-8v-24
			C383.725,412.884,378.285,399.604,367.725,392.244z M361.245,320.724l-6.88,27.44c-1.744,6.959-2.631,14.106-2.64,21.28v16
			c-5.248-1.206-10.615-1.823-16-1.84h-144c-5.386-0.006-10.755,0.612-16,1.84v-12.56c-0.001-10.557-5.209-20.435-13.92-26.4
			l-10.08-6.96c-15.626-10.632-27.387-26.042-33.52-43.92l-9.84-28.24c-2.775-7.95-2.971-16.572-0.56-24.64l18.16-58
			c10.629,2.14,19.452,9.517,23.44,19.6l-4,58.4c-0.495,4.39,2.663,8.351,7.053,8.846c0.129,0.014,0.258,0.026,0.387,0.034h0.56
			c4.208,0.01,7.705-3.242,8-7.44l12.8-185.68c0.589-8.396,7.583-14.901,16-14.88h1.52c8.837,0,16,7.163,16,16v120
			c0,4.418,3.582,8,8,8s8-3.582,8-8v-152c0-8.837,7.163-16,16-16h1.12c8.563-0.009,15.615,6.726,16,15.28l6.88,144.72
			c0,4.418,3.582,8,8,8s8-3.582,8-8l-2.24-48h6c12.18-0.093,22.498,8.953,24,21.04l4.24,35.92c0.488,4.04,3.931,7.069,8,7.04h1.04
			c4.385-0.538,7.504-4.53,6.966-8.915c-0.002-0.015-0.004-0.03-0.006-0.045l-2.96-23.04c16.016,0.064,29.518,11.96,31.6,27.84
			l8.64,65.28C366.767,286.144,365.495,303.738,361.245,320.724z"/>
	</g>
</g>
<g>
</g>
<g>
</g>
<g>
</g>
<g>
</g>
<g>
</g>
<g>
</g>
<g>
</g>
<g>
</g>
<g>
</g>
<g>
</g>
<g>
</g>
<g>
</g>
<g>
</g>
<g>
</g>
<g>
</g>
</svg>
